<svg height="415pt" viewBox="0 -1 415.17752 415" width="415pt" xmlns="http://www.w3.org/2000/svg" stroke="wheat" stroke-width="5px">
    <path fill="transparent"
        d="m140.304688 369.066406c-3.191407-2.597656-6.320313-5.386718-9.289063-8.277344-2.699219-2.625-7.019531-2.574218-9.652344.132813-2.628906 2.699219-2.570312 7.023437.132813 9.652344 3.257812 3.171875 6.683594 6.222656 10.191406 9.078125 1.265625 1.03125 2.789062 1.53125 4.304688 1.53125 1.980468 0 3.945312-.859375 5.296874-2.515625 2.378907-2.921875 1.941407-7.222657-.984374-9.601563zm0 0" />
    <path fill="transparent" 
        d="m227.816406 233.617188c-14.976562 0-27.164062 12.183593-27.164062 27.164062s12.1875 27.167969 27.164062 27.167969c14.980469 0 27.167969-12.1875 27.167969-27.167969s-12.183594-27.164062-27.167969-27.164062zm0 40.679687c-7.449218 0-13.511718-6.066406-13.511718-13.515625s6.0625-13.511719 13.511718-13.511719c7.449219 0 13.515625 6.0625 13.515625 13.511719s-6.0625 13.515625-13.515625 13.515625zm0 0" />
    <path fill="transparent" 
        d="m363.554688 54.703125c3.769531 0 6.828124-3.058594 6.828124-6.828125v-20.480469c0-3.769531-3.058593-6.824219-6.828124-6.824219-3.769532 0-6.824219 3.054688-6.824219 6.824219v20.480469c0 3.769531 3.054687 6.828125 6.824219 6.828125zm0 0" />
    <path fill="transparent" 
        d="m363.554688 68.355469c-3.769532 0-6.824219 3.054687-6.824219 6.828125v20.476562c0 3.773438 3.054687 6.828125 6.824219 6.828125 3.769531 0 6.828124-3.054687 6.828124-6.828125v-20.476562c0-3.773438-3.058593-6.828125-6.828124-6.828125zm0 0" />
    <path fill="transparent" 
        d="m329.421875 68.355469h20.480469c3.769531 0 6.828125-3.058594 6.828125-6.828125 0-3.769532-3.058594-6.824219-6.828125-6.824219h-20.480469c-3.769531 0-6.824219 3.054687-6.824219 6.824219 0 3.769531 3.054688 6.828125 6.824219 6.828125zm0 0" />
    <path fill="transparent" 
        d="m377.210938 68.355469h20.476562c3.773438 0 6.828125-3.058594 6.828125-6.828125 0-3.769532-3.054687-6.824219-6.828125-6.824219h-20.476562c-3.773438 0-6.828126 3.054687-6.828126 6.824219 0 3.769531 3.054688 6.828125 6.828126 6.828125zm0 0" />
    <path fill="transparent" 
        d="m14.960938 168.261719c-5.382813 1.628906-9.808594 5.257812-12.460938 10.21875-2.65625 4.957031-3.214844 10.65625-1.585938 16.035156 1.628907 5.382813 5.261719 9.808594 10.21875 12.464844 3.101563 1.65625 6.488282 2.5 9.90625 2.5 2.050782 0 4.117188-.304688 6.136719-.917969 11.109375-3.371094 17.410157-15.148438 14.042969-26.261719-3.371094-11.109375-15.15625-17.410156-26.257812-14.039062zm8.253906 27.234375c-1.886719.574218-3.898438.378906-5.640625-.554688-1.742188-.933594-3.019531-2.488281-3.589844-4.378906-.574219-1.894531-.378906-3.898438.554687-5.640625.933594-1.746094 2.488282-3.023437 4.378907-3.59375.714843-.214844 1.433593-.320313 2.144531-.320313 3.175781 0 6.121094 2.0625 7.089844 5.257813 1.183594 3.902344-1.03125 8.046875-4.9375 9.230469zm0 0" />
    <path fill="transparent" 
        d="m34.554688.0898438c-11.609376 0-21.054688 9.4453122-21.054688 21.0546872 0 11.613281 9.445312 21.058594 21.054688 21.058594 11.609374 0 21.058593-9.445313 21.058593-21.058594 0-11.609375-9.449219-21.0546872-21.058593-21.0546872zm0 28.4609372c-4.082032 0-7.402344-3.320312-7.402344-7.40625 0-4.082031 3.320312-7.402343 7.402344-7.402343 4.085937 0 7.402343 3.320312 7.402343 7.402343 0 4.085938-3.316406 7.40625-7.402343 7.40625zm0 0" />
    <path fill="transparent" 
        d="m87.414062 91.824219c1.335938 1.335937 3.082032 2 4.828126 2 1.746093 0 3.492187-.664063 4.828124-2l5.234376-5.234375 5.234374 5.234375c1.335938 1.335937 3.082032 2 4.828126 2 1.746093 0 3.492187-.664063 4.828124-2 2.664063-2.664063 2.664063-6.984375 0-9.652344l-5.238281-5.234375 5.238281-5.238281c2.664063-2.664063 2.664063-6.984375 0-9.652344-2.667968-2.664063-6.988281-2.664063-9.65625 0l-5.234374 5.238281-5.234376-5.238281c-2.667968-2.664063-6.988281-2.664063-9.65625 0-2.664062 2.667969-2.664062 6.988281 0 9.652344l5.238282 5.238281-5.238282 5.234375c-2.664062 2.667969-2.664062 6.988281 0 9.652344zm0 0" />
    <path fill="transparent" 
        d="m224.03125 33.171875c0 6.285156-5.097656 11.382813-11.386719 11.382813-6.285156 0-11.382812-5.097657-11.382812-11.382813 0-6.289063 5.097656-11.386719 11.382812-11.386719 6.289063 0 11.386719 5.097656 11.386719 11.386719zm0 0" />
    <path fill="transparent" 
        d="m415.175781 176.53125c0 6.289062-5.09375 11.382812-11.382812 11.382812-6.289063 0-11.386719-5.09375-11.386719-11.382812s5.097656-11.386719 11.386719-11.386719c6.289062 0 11.382812 5.097657 11.382812 11.386719zm0 0" />
    <path fill="transparent" 
        d="m343.320312 124.886719c-20.015624-14.125-43.78125-17.183594-61.15625-9.664063-.242187-.125-.476562-.265625-.738281-.363281-34.242187-12.914063-72.964843-12.914063-107.238281.007813-.519531.195312-.988281.460937-1.429688.761718-17.449218-8.015625-41.683593-5.109375-62.039062 9.257813-27.171875 19.175781-37.441406 51.722656-23.429688 73.277343-8.332031 19.386719-12.566406 40.023438-12.566406 61.339844 0 31.667969 9.445313 62.109375 27.308594 88.019532 1.320312 1.921874 3.453125 2.949218 5.625 2.949218 1.335938 0 2.6875-.390625 3.867188-1.203125 3.105468-2.140625 3.886718-6.390625 1.746093-9.496093-14.996093-21.753907-23.484375-47.019532-24.734375-73.445313h86.019532c2.785156 26.929687 25.609374 48.003906 53.261718 48.003906 27.65625 0 50.484375-21.074219 53.269532-48.003906h86.011718c-3.535156 74.4375-64.65625 133.894531-139.277344 133.894531-23.347656 0-46.441406-5.933594-66.785156-17.15625-3.304687-1.824218-7.457031-.621094-9.273437 2.679688-1.824219 3.300781-.621094 7.453125 2.679687 9.277344 22.355469 12.332031 47.730469 18.851562 73.375 18.851562 84.417969 0 153.097656-69.25 153.097656-154.371094 0-21.929687-4.449218-43.050781-13.222656-62.859375 12.589844-21.539062 2.171875-53.023437-24.371094-71.757812zm-7.871093 11.152343c21.011719 14.832032 29.777343 38.878907 20.097656 54.320313-.941406.738281-1.640625 1.699219-2.078125 2.769531-11.542969 13.675782-36.664062 13.304688-57.378906-1.308594-21.527344-15.195312-30.214844-40.070312-19.363282-55.445312 5.46875-7.75 14.871094-11.632812 25.613282-11.632812 10.566406 0 22.433594 3.765624 33.109375 11.296874zm-66.972657-11.144531c-1.03125 1.132813-2.007812 2.335938-2.90625 3.609375-15.191406 21.527344-5.03125 54.933594 22.644532 74.46875 12.960937 9.148438 27.492187 13.65625 40.847656 13.65625 10.757812 0 20.738281-2.941406 28.523438-8.726562 5.597656 14.292968 8.785156 29.289062 9.507812 44.773437h-86.335938c-3.917968-25.695312-26.164062-45.445312-52.941406-45.445312-26.769531 0-49.015625 19.75-52.9375 45.445312h-86.332031c.710937-15.128906 3.792969-29.835937 9.175781-43.867187 7.585938 5.183594 17.074219 7.820312 27.257813 7.820312 13.351562 0 27.890625-4.511718 40.847656-13.65625 27.675781-19.53125 37.835937-52.941406 22.644531-74.46875-.800781-1.136718-1.667968-2.203125-2.578125-3.226562 26.683594-8.445313 55.832031-8.5625 82.582031-.382813zm-149.882812 11.144531c10.679688-7.53125 22.542969-11.296874 33.109375-11.296874 10.742187 0 20.144531 3.882812 25.613281 11.632812 10.851563 15.378906 2.164063 40.25-19.363281 55.445312-21.527344 15.191407-47.871094 15.039063-58.722656-.335937-10.847657-15.375-2.160157-40.25 19.363281-55.445313zm109.222656 164.640626c-22 0-39.894531-17.898438-39.894531-39.898438s17.894531-39.898438 39.894531-39.898438c22.003906 0 39.902344 17.898438 39.902344 39.898438s-17.898438 39.898438-39.902344 39.898438zm0 0" />
    <path fill="transparent" 
        d="m200.074219 193.929688c3.378906 1.695312 7.472656.320312 9.160156-3.050782l6.6875-13.375 5.417969 8.132813c2.535156 3.800781 8.828125 3.800781 11.359375 0l5.421875-8.132813 6.6875 13.375c1.195312 2.390625 3.605468 3.773438 6.113281 3.773438 1.023437 0 2.066406-.230469 3.046875-.722656 3.371094-1.6875 4.738281-5.785157 3.050781-9.160157l-11.945312-23.890625c-1.089844-2.175781-3.253907-3.609375-5.683594-3.761718-2.410156-.15625-4.757813 1.003906-6.101563 3.027343l-6.269531 9.398438-6.265625-9.398438c-1.347656-2.023437-3.703125-3.175781-6.101562-3.027343-2.433594.152343-4.59375 1.585937-5.683594 3.761718l-11.949219 23.890625c-1.683593 3.375-.316406 7.472657 3.054688 9.160157zm0 0" />
    </svg>